<?xml version="1.0" encoding="UTF-8"?>
<svg version="1.1" xmlns="http://www.w3.org/2000/svg" width="225" height="225">
<path d="M0 0 C74.25 0 148.5 0 225 0 C225 74.25 225 148.5 225 225 C150.75 225 76.5 225 0 225 C0 150.75 0 76.5 0 0 Z " fill="#FEFDFD" transform="translate(0,0)"/>
<path d="M0 0 C6.79272815 3.76864447 13.18731253 7.41605633 18.75 12.875 C19.29164795 13.39400879 19.8332959 13.91301758 20.39135742 14.44775391 C21.94345698 15.95005472 23.47445695 17.47080107 25 19 C25.76441406 19.7528125 26.52882812 20.505625 27.31640625 21.28125 C44.08961435 38.87506515 51.64524198 64.24399948 51.25 88.08203125 C49.44710003 116.33685429 37.42797873 140.42892829 16.4375 159.25 C-5.85336414 176.91390931 -32.43656116 182.35459657 -60.36962891 179.78173828 C-83.68100171 176.53310465 -106.0157215 162.29572387 -120.375 143.96875 C-136.40702552 121.65390366 -143.04139523 96.75242051 -139.67919922 69.38916016 C-136.66565129 51.61911385 -128.56339436 35.66368436 -117 22 C-116.55398437 21.40832031 -116.10796875 20.81664063 -115.6484375 20.20703125 C-109.70354643 12.52973327 -100.54189207 5.56785672 -92 1 C-91.34 1 -90.68 1 -90 1 C-89.80087606 5.00124233 -89.65646544 9.00053573 -89.56054688 13.00561523 C-89.52053615 14.36485056 -89.46610223 15.72374629 -89.39648438 17.08178711 C-88.83184742 28.38698146 -88.83184742 28.38698146 -91.69116211 32.33520508 C-93.71262487 34.06625592 -95.78323346 35.53259752 -98 37 C-112.02107769 53.14146751 -116.40479473 72.46161044 -115.25439453 93.30224609 C-113.40762406 112.88652032 -102.49872674 129.42843891 -87.6875 141.8125 C-73.38887299 152.25560437 -54.59702715 158.4150922 -36.85253906 155.66748047 C-16.83749295 151.97193387 0.42812292 144.18857187 12.9296875 127.41015625 C24.22954471 110.50886768 28.77466856 90.70047186 25.61767578 70.56103516 C22.58773891 56.35574673 14.79396514 39.4883529 2.39233398 31.27246094 C0 29 0 29 -0.56762695 25.88378906 C-0.54144287 24.68979492 -0.51525879 23.49580078 -0.48828125 22.265625 C-0.47216797 20.97011719 -0.45605469 19.67460938 -0.43945312 18.33984375 C-0.39767939 16.97654572 -0.3553547 15.61326448 -0.3125 14.25 C-0.2874091 12.87113376 -0.26459729 11.49222403 -0.24414062 10.11328125 C-0.18518617 6.74108644 -0.10293171 3.37109259 0 0 Z " fill="#ED1B23" transform="translate(157,28)"/>
<path d="M0 0 C0.09303702 7.29359622 0.16393443 14.58706267 0.20724869 21.88113403 C0.22804671 25.26878958 0.25621887 28.65603656 0.30175781 32.04345703 C0.35044693 35.94574646 0.37300929 39.84746152 0.390625 43.75 C0.41127014 44.95551514 0.43191528 46.16103027 0.45318604 47.40307617 C0.45504613 54.42531879 -0.15982313 59.05592911 -4 65 C-6.5859375 67.1796875 -6.5859375 67.1796875 -9.375 68.875 C-16.27453355 73.56373508 -19.4564894 78.93074478 -22.375 86.625 C-24.13704422 96.14003878 -22.5717211 105.39552519 -17.3046875 113.66015625 C-11.71051551 120.44337289 -4.70670994 124.61864698 4 126 C14.10063471 126.49675253 21.89410882 124.12354594 30 118 C36.77067362 111.25771495 39.09852674 103.55975991 39.5625 94.1875 C39.35483386 85.8266806 36.71468354 79.00432749 30.99609375 72.83984375 C28.19544164 70.33679414 25.24678534 68.1754918 22.1875 66 C18.50280533 62.6311363 17.18789168 59.04856485 16.74038696 54.16946411 C16.65314183 50.72487617 16.66296635 47.29307285 16.70703125 43.84765625 C16.71127609 42.59238632 16.71552094 41.33711639 16.71989441 40.04380798 C16.73379372 36.72770663 16.76068498 33.41223948 16.79400635 30.09631348 C16.8248508 26.7042383 16.83843025 23.31209726 16.85351562 19.91992188 C16.88652362 13.27977447 16.93667785 6.6399238 17 0 C22.16287668 -0.13468374 26.47821013 0.13042094 31.5 1.5 C33.06234375 1.91765625 33.06234375 1.91765625 34.65625 2.34375 C35.81640625 2.66859375 35.81640625 2.66859375 37 3 C37.0093457 4.13953125 37.01869141 5.2790625 37.02832031 6.453125 C37.06841055 10.71018528 37.13422095 14.96653727 37.20751953 19.22314453 C37.23561931 21.05996553 37.25688818 22.89690497 37.27099609 24.73388672 C37.29257897 27.38570314 37.33930499 30.03611185 37.390625 32.6875 C37.39185364 33.49928711 37.39308228 34.31107422 37.39434814 35.14746094 C37.55892225 41.65914899 39.25810167 47.16017673 43.859375 51.92578125 C44.48328125 52.38339844 45.1071875 52.84101562 45.75 53.3125 C53.27647232 59.4769055 58.8238673 67.82264816 62 77 C62.22429687 77.63550781 62.44859375 78.27101563 62.6796875 78.92578125 C66.87944012 93.73997713 64.04936466 109.3831134 57.1875 122.8125 C49.52112689 135.9250342 37.77968612 144.84868054 23.2265625 149.1875 C8.11051854 152.53852661 -7.64880025 150.68583255 -20.875 142.625 C-22.60089521 141.44188633 -24.31114746 140.23541464 -26 139 C-26.98613281 138.29037109 -26.98613281 138.29037109 -27.9921875 137.56640625 C-38.12801067 129.61541607 -44.75119254 116.53046085 -47 104 C-48.48419963 88.41016389 -46.33663255 74.89442424 -37 62 C-33.22663575 57.44662936 -29.20468055 53.15593063 -25 49 C-22.23986216 46.23986216 -21.87395499 44.70013819 -21.79467773 40.91748047 C-21.77473251 40.07675995 -21.75478729 39.23603943 -21.73423767 38.36984253 C-21.70916893 37.00727829 -21.70916893 37.00727829 -21.68359375 35.6171875 C-21.66281265 34.68778351 -21.64203156 33.75837952 -21.62062073 32.80081177 C-21.55512354 29.8256179 -21.49623948 26.85033423 -21.4375 23.875 C-21.39431494 21.86066772 -21.35070066 19.84634459 -21.30664062 17.83203125 C-21.19944197 12.88811337 -21.09817499 7.94410497 -21 3 C-19.00289812 2.48854708 -17.00212297 1.99143018 -15 1.5 C-13.88625 1.2215625 -12.7725 0.943125 -11.625 0.65625 C-7.61638579 -0.0694474 -4.06379355 -0.10694194 0 0 Z " fill="#ED1B24" transform="translate(104,18)"/>
<path d="M0 0 C3 3 3 3 3.32470703 5.69555664 C3.30263184 6.75637451 3.28055664 7.81719238 3.2578125 8.91015625 C3.24363281 10.06451172 3.22945312 11.21886719 3.21484375 12.40820312 C3.17037109 14.21708008 3.17037109 14.21708008 3.125 16.0625 C3.08176825 18.44914687 3.04250028 20.83586991 3.0078125 23.22265625 C2.98348145 24.28234619 2.95915039 25.34203613 2.93408203 26.43383789 C2.81823644 28.98988805 2.81823644 28.98988805 4 31 C2.68 30.34 1.36 29.68 0 29 C0 19.43 0 9.86 0 0 Z " fill="#EE343B" transform="translate(157,28)"/>
</svg>
